# xmcd
#
# Track frame offsets: 
#        150
#        23147
#        44113
#        63268
#        80464
#        101068
#        115104
#        138202
#        159246
#        179482
#        199996
#        221924
#        240975
#        265281
#        282891
#
# Disc length: 4095 seconds
#
# Revision: 2
# Processed by: cddbd v1.5.2PL0 Copyright (c) Steve Scherf et al.
# Submitted via: ExactAudioCopy v1.0b1
#
DISCID=d80ffd0f
DTITLE=Champion Jack Dupree - The Sonet Blues Story
DYEAR=1971
DGENRE=Blues
TTITLE0=Vietnam Blues
TTITLE1=Drunk Again
TTITLE2=Found My Baby Gone
TTITLE3=Anything You Want
TTITLE4=Will It Be
TTITLE5=You're The One
TTITLE6=Down And Out
TTITLE7=Roamin' Special
TTITLE8=The Life I Lead
TTITLE9=Jit-A-Bug Jump
TTITLE10=Vietnam Blues - Alternate Take
TTITLE11=One Scotch, One Bourbon (Bonus Track)
TTITLE12=Drinking And Gambling (Bonus Track)
TTITLE13=Rolling And Tumbling (Bonus Track)
TTITLE14=Every Man's A King (Bonus Track)
EXTD=
EXTT0=
EXTT1=
EXTT2=
EXTT3=
EXTT4=
EXTT5=
EXTT6=
EXTT7=
EXTT8=
EXTT9=
EXTT10=
EXTT11=
EXTT12=
EXTT13=
EXTT14=
PLAYORDER=
